<svg width="280" height="120" viewBox="0 0 280 120" fill="none" xmlns="http://www.w3.org/2000/svg">
  <path d="M18 24L42 34L51 48L72 54" stroke="rgba(255,248,240,0.1)" stroke-width="2" stroke-linecap="round"/>
  <path d="M52 32L47 14" stroke="rgba(255,248,240,0.08)" stroke-width="1.5" stroke-linecap="round"/>
  <path d="M138 16L150 30L174 34L185 54" stroke="rgba(255,248,240,0.09)" stroke-width="2" stroke-linecap="round"/>
  <path d="M160 30L156 48" stroke="rgba(255,248,240,0.07)" stroke-width="1.4" stroke-linecap="round"/>
  <path d="M216 76L229 64L249 62L262 48" stroke="rgba(255,248,240,0.08)" stroke-width="2" stroke-linecap="round"/>
  <path d="M228 64L230 83" stroke="rgba(255,248,240,0.06)" stroke-width="1.4" stroke-linecap="round"/>
  <path d="M94 76L111 67L125 78L142 73" stroke="rgba(0,0,0,0.14)" stroke-width="2" stroke-linecap="round"/>
  <path d="M110 67L104 54" stroke="rgba(0,0,0,0.1)" stroke-width="1.5" stroke-linecap="round"/>
  <path d="M194 92L176 101L163 92L146 98" stroke="rgba(0,0,0,0.12)" stroke-width="2" stroke-linecap="round"/>
  <path d="M176 101L180 114" stroke="rgba(0,0,0,0.08)" stroke-width="1.5" stroke-linecap="round"/>
</svg>
