<svg width="860" height="220" viewBox="0 0 860 220" fill="none" xmlns="http://www.w3.org/2000/svg">
  <path d="M30 41L53 17H250L274 31H596L620 19H806L829 45L823 176L800 201H594L571 187H268L243 202H51L28 179L30 41Z" fill="rgba(7,10,15,0.42)"/>
  <path d="M30 41L53 17H250L274 31H596L620 19H806L829 45L823 176L800 201H594L571 187H268L243 202H51L28 179L30 41Z" stroke="rgba(255,240,230,0.16)" stroke-width="2.5" stroke-linejoin="round"/>
  <path d="M62 28H244L272 40H590L620 30H796" stroke="rgba(255,240,230,0.08)" stroke-width="1.4" stroke-linecap="round"/>
  <path d="M62 191H236L267 176H592L621 190H790" stroke="rgba(255,240,230,0.08)" stroke-width="1.4" stroke-linecap="round"/>
  <path d="M86 64L102 82" stroke="rgba(255,240,230,0.08)" stroke-width="1.6" stroke-linecap="round"/>
  <path d="M708 69L733 56" stroke="rgba(255,110,82,0.12)" stroke-width="1.6" stroke-linecap="round"/>
  <path d="M722 156L746 173" stroke="rgba(255,240,230,0.08)" stroke-width="1.6" stroke-linecap="round"/>
</svg>
