<svg width="1200" height="800" viewBox="0 0 1200 800" fill="none" xmlns="http://www.w3.org/2000/svg">
  <g opacity="0.9">
    <path d="M120 176C135 151 171 144 194 159C221 177 220 224 191 240C157 259 102 238 98 204C97 192 109 188 120 176Z" fill="#6A0F12"/>
    <path d="M222 140C229 130 245 127 255 136C266 145 265 162 254 171C241 182 220 174 218 158C217 151 218 146 222 140Z" fill="#8A1518"/>
    <path d="M167 262C179 246 205 243 220 255C236 268 233 294 215 305C195 318 161 311 151 291C145 279 158 272 167 262Z" fill="#7E1216"/>
    <path d="M904 154C926 122 973 114 1003 136C1035 160 1030 212 995 233C956 257 893 243 878 205C871 188 890 175 904 154Z" fill="#6E0E12"/>
    <path d="M1035 109C1043 96 1062 93 1074 104C1087 116 1084 136 1071 146C1056 158 1032 148 1029 130C1028 122 1031 115 1035 109Z" fill="#8F171B"/>
    <path d="M950 278C965 258 996 252 1015 266C1036 281 1032 316 1008 330C982 346 940 338 927 313C920 300 939 291 950 278Z" fill="#7A1116"/>
    <path d="M346 546C370 513 418 503 451 524C486 547 482 603 443 626C400 651 329 637 313 593C306 576 331 562 346 546Z" fill="#6B0E12"/>
    <path d="M470 488C479 474 500 470 514 481C529 493 526 516 511 526C494 538 468 528 464 509C462 501 465 494 470 488Z" fill="#94191D"/>
    <path d="M404 665C417 647 444 643 461 656C479 670 476 698 456 710C434 724 398 717 388 695C382 684 394 676 404 665Z" fill="#7A1116"/>
    <path d="M816 562C840 529 888 519 921 540C956 563 952 619 913 642C870 667 799 653 783 609C776 592 801 578 816 562Z" fill="#6D0E12"/>
    <path d="M940 503C949 489 970 485 984 496C999 508 996 531 981 541C964 553 938 543 934 524C932 516 935 509 940 503Z" fill="#95191D"/>
    <path d="M873 681C886 663 913 659 930 672C948 686 945 714 925 726C903 740 867 733 857 711C851 700 863 692 873 681Z" fill="#781116"/>
    <path d="M587 120L613 78L644 114L627 149L587 120Z" fill="#A81D22"/>
    <path d="M553 641L580 606L603 640L581 678L553 641Z" fill="#8A1518"/>
    <path d="M733 386L752 361L774 382L760 410L733 386Z" fill="#B02025"/>
    <path d="M286 359L304 335L326 353L314 381L286 359Z" fill="#8B1418"/>
  </g>
  <g opacity="0.55">
    <circle cx="122" cy="291" r="7" fill="#B12026"/>
    <circle cx="148" cy="308" r="4" fill="#8E171B"/>
    <circle cx="183" cy="323" r="9" fill="#94191D"/>
    <circle cx="1008" cy="361" r="8" fill="#A11B20"/>
    <circle cx="1042" cy="348" r="4" fill="#821115"/>
    <circle cx="968" cy="383" r="6" fill="#8E171B"/>
    <circle cx="345" cy="704" r="5" fill="#94191D"/>
    <circle cx="373" cy="719" r="8" fill="#7A1116"/>
    <circle cx="910" cy="740" r="7" fill="#8B1418"/>
    <circle cx="938" cy="722" r="4" fill="#A11B20"/>
  </g>
</svg>
